# xmcd CD database file
#
# Track frame offsets:
#	150
#	12948
#	29334
#	33341
#	48244
#	61717
#	73072
#	86162
#	97323
#	107920
#	122268
#	139980
#	146603
#	159130
#	172449
#	190765
#	203350
#	219736
#	223888
#	238866
#	252339
#	263694
#	276859
#	288020
#
# Disc length: 4029 seconds
#
# Revision: 0
# Processed by: cddbd v1.5.1PL0 Copyright (c) Steve Scherf et al.
# Submitted via: CDex 1.51
#
DISCID=690fbb18
DTITLE=Haurrock - Goazen!
DYEAR=2003
DGENRE=Euskal Haur Musika
TTITLE0=Hau Ala Hori
TTITLE1=Goazen!
TTITLE2=Ai, Ui, Oi, Sagarroi
TTITLE3=Lurra Ez Da Salgai
TTITLE4=Hiztegi Miztegi
TTITLE5=Ttur Ttur
TTITLE6=Bakea
TTITLE7=Egun On, Gau On
TTITLE8=Muki-Muki
TTITLE9=Sagarrondo Zaharra
TTITLE10=Bero Bero
TTITLE11=Uso Arin
TTITLE12=Kukukarakoroko
TTITLE13=Harrizko Neska
TTITLE14=Itzuli Da Pitxitxi
TTITLE15=Hau Ala Hori Instrumentala
TTITLE16=Goazen! Instrumentala
TTITLE17=Ai, Ui, Oi, Sagarroi Instrumentala
TTITLE18=Lurra Ez Da Salgai Instrumentala
TTITLE19=Hiztegi Miztegi Instrumentala
TTITLE20=Ttur Ttur Instrumentala
TTITLE21=Bakea Instrumentala
TTITLE22=Egun On, Gau On Instrumentala
TTITLE23=Sagarrondo Zaharra Instrumentala
EXTD=YEAR: 2003
EXTT0=
EXTT1=
EXTT2=
EXTT3=
EXTT4=
EXTT5=
EXTT6=
EXTT7=
EXTT8=
EXTT9=
EXTT10=
EXTT11=
EXTT12=
EXTT13=
EXTT14=
EXTT15=
EXTT16=
EXTT17=
EXTT18=
EXTT19=
EXTT20=
EXTT21=
EXTT22=
EXTT23=
PLAYORDER=
